<mxfile host="app.diagrams.net" modified="2021-08-24T08:21:42.452Z" agent="5.0 (Macintosh; Intel Mac OS X 10_15_7) AppleWebKit/537.36 (KHTML, like Gecko) Chrome/92.0.4515.159 Safari/537.36" etag="igBvSUmvqhmUwEYPsF6x" version="14.9.8" type="github">
  <diagram id="Lko1mJjZazZBHu9Fduh9" name="Page-1">
    <mxGraphModel dx="1186" dy="614" grid="1" gridSize="10" guides="1" tooltips="1" connect="1" arrows="1" fold="1" page="1" pageScale="1" pageWidth="827" pageHeight="1169" math="0" shadow="0">
      <root>
        <mxCell id="0" />
        <mxCell id="1" parent="0" />
        <mxCell id="-2UiLBpFi5a7ax2FoRXW-70" value="发奖失败" style="shape=umlFrame;whiteSpace=wrap;html=1;" parent="1" vertex="1">
          <mxGeometry x="270" y="2320" width="188" height="40" as="geometry" />
        </mxCell>
        <mxCell id="-2UiLBpFi5a7ax2FoRXW-57" value="发奖失败" style="shape=umlFrame;whiteSpace=wrap;html=1;" parent="1" vertex="1">
          <mxGeometry x="230" y="2190" width="810" height="180" as="geometry" />
        </mxCell>
        <mxCell id="Q3sBBswvDzIRWrq1OGgR-147" value="分页查询外部券" style="shape=umlFrame;whiteSpace=wrap;html=1;" parent="1" vertex="1">
          <mxGeometry x="160" y="1020" width="660" height="410" as="geometry" />
        </mxCell>
        <mxCell id="Q3sBBswvDzIRWrq1OGgR-148" value="遍历商家券id" style="shape=umlFrame;whiteSpace=wrap;html=1;" parent="1" vertex="1">
          <mxGeometry x="180" y="1080" width="600" height="340" as="geometry" />
        </mxCell>
        <mxCell id="Q3sBBswvDzIRWrq1OGgR-82" value="分页查询券批次" style="shape=umlFrame;whiteSpace=wrap;html=1;" parent="1" vertex="1">
          <mxGeometry x="160" y="150" width="860" height="440" as="geometry" />
        </mxCell>
        <mxCell id="Q3sBBswvDzIRWrq1OGgR-76" value="遍历open_id" style="shape=umlFrame;whiteSpace=wrap;html=1;" parent="1" vertex="1">
          <mxGeometry x="200" y="350" width="370" height="210" as="geometry" />
        </mxCell>
        <mxCell id="Q3sBBswvDzIRWrq1OGgR-21" value="xxl-job" style="shape=umlLifeline;perimeter=lifelinePerimeter;whiteSpace=wrap;html=1;container=1;collapsible=0;recursiveResize=0;outlineConnect=0;" parent="1" vertex="1">
          <mxGeometry x="20" y="60" width="120" height="600" as="geometry" />
        </mxCell>
        <mxCell id="Q3sBBswvDzIRWrq1OGgR-22" value="&lt;font color=&quot;#323232&quot;&gt;&lt;span style=&quot;font-size: 13px ; background-color: rgba(255 , 255 , 255 , 0.01)&quot;&gt;promotask&lt;/span&gt;&lt;/font&gt;" style="shape=umlLifeline;perimeter=lifelinePerimeter;whiteSpace=wrap;html=1;container=1;collapsible=0;recursiveResize=0;outlineConnect=0;" parent="1" vertex="1">
          <mxGeometry x="220" y="60" width="120" height="590" as="geometry" />
        </mxCell>
        <mxCell id="Q3sBBswvDzIRWrq1OGgR-30" value="" style="html=1;points=[];perimeter=orthogonalPerimeter;" parent="Q3sBBswvDzIRWrq1OGgR-22" vertex="1">
          <mxGeometry x="55" y="60" width="10" height="510" as="geometry" />
        </mxCell>
        <mxCell id="Q3sBBswvDzIRWrq1OGgR-35" value="" style="endArrow=block;endFill=1;html=1;align=left;verticalAlign=top;" parent="Q3sBBswvDzIRWrq1OGgR-22" edge="1">
          <mxGeometry x="-1" relative="1" as="geometry">
            <mxPoint x="65" y="110" as="sourcePoint" />
            <mxPoint x="750" y="110" as="targetPoint" />
          </mxGeometry>
        </mxCell>
        <mxCell id="Q3sBBswvDzIRWrq1OGgR-36" value="2" style="edgeLabel;resizable=0;html=1;align=left;verticalAlign=bottom;" parent="Q3sBBswvDzIRWrq1OGgR-35" connectable="0" vertex="1">
          <mxGeometry x="-1" relative="1" as="geometry" />
        </mxCell>
        <mxCell id="Q3sBBswvDzIRWrq1OGgR-37" value="&lt;span style=&quot;font-size: 11px&quot;&gt;分页查询outer_ticket_bind表&lt;/span&gt;" style="edgeLabel;html=1;align=center;verticalAlign=middle;resizable=0;points=[];" parent="Q3sBBswvDzIRWrq1OGgR-35" vertex="1" connectable="0">
          <mxGeometry x="-0.1942" y="3" relative="1" as="geometry">
            <mxPoint as="offset" />
          </mxGeometry>
        </mxCell>
        <mxCell id="Q3sBBswvDzIRWrq1OGgR-43" value="" style="endArrow=block;endFill=1;html=1;edgeStyle=orthogonalEdgeStyle;align=left;verticalAlign=top;entryX=-0.1;entryY=0.138;entryDx=0;entryDy=0;entryPerimeter=0;" parent="Q3sBBswvDzIRWrq1OGgR-22" target="Q3sBBswvDzIRWrq1OGgR-41" edge="1">
          <mxGeometry x="-1" relative="1" as="geometry">
            <mxPoint x="70" y="181" as="sourcePoint" />
            <mxPoint x="230" y="180" as="targetPoint" />
          </mxGeometry>
        </mxCell>
        <mxCell id="Q3sBBswvDzIRWrq1OGgR-44" value="3" style="edgeLabel;resizable=0;html=1;align=left;verticalAlign=bottom;" parent="Q3sBBswvDzIRWrq1OGgR-43" connectable="0" vertex="1">
          <mxGeometry x="-1" relative="1" as="geometry" />
        </mxCell>
        <mxCell id="Q3sBBswvDzIRWrq1OGgR-45" value="根据券ticket_id查询coupon_user_ticket表获取前3天用户券信息" style="edgeLabel;html=1;align=center;verticalAlign=middle;resizable=0;points=[];" parent="Q3sBBswvDzIRWrq1OGgR-43" vertex="1" connectable="0">
          <mxGeometry x="0.0597" y="2" relative="1" as="geometry">
            <mxPoint as="offset" />
          </mxGeometry>
        </mxCell>
        <mxCell id="Q3sBBswvDzIRWrq1OGgR-46" value="用户id和用户券信息" style="html=1;verticalAlign=bottom;endArrow=open;dashed=1;endSize=8;exitX=-0.3;exitY=0.538;exitDx=0;exitDy=0;exitPerimeter=0;" parent="Q3sBBswvDzIRWrq1OGgR-22" source="Q3sBBswvDzIRWrq1OGgR-41" edge="1">
          <mxGeometry relative="1" as="geometry">
            <mxPoint x="580" y="210" as="sourcePoint" />
            <mxPoint x="70" y="210" as="targetPoint" />
          </mxGeometry>
        </mxCell>
        <mxCell id="Q3sBBswvDzIRWrq1OGgR-48" value="" style="endArrow=block;endFill=1;html=1;edgeStyle=orthogonalEdgeStyle;align=left;verticalAlign=top;" parent="Q3sBBswvDzIRWrq1OGgR-22" edge="1">
          <mxGeometry x="-1" relative="1" as="geometry">
            <mxPoint x="70" y="250" as="sourcePoint" />
            <mxPoint x="400" y="250" as="targetPoint" />
          </mxGeometry>
        </mxCell>
        <mxCell id="Q3sBBswvDzIRWrq1OGgR-49" value="4" style="edgeLabel;resizable=0;html=1;align=left;verticalAlign=bottom;" parent="Q3sBBswvDzIRWrq1OGgR-48" connectable="0" vertex="1">
          <mxGeometry x="-1" relative="1" as="geometry" />
        </mxCell>
        <mxCell id="Q3sBBswvDzIRWrq1OGgR-50" value="根据用户id查微信open_id" style="edgeLabel;html=1;align=center;verticalAlign=middle;resizable=0;points=[];" parent="Q3sBBswvDzIRWrq1OGgR-48" vertex="1" connectable="0">
          <mxGeometry x="0.0909" y="1" relative="1" as="geometry">
            <mxPoint as="offset" />
          </mxGeometry>
        </mxCell>
        <mxCell id="Q3sBBswvDzIRWrq1OGgR-51" value="返回微信open_id" style="html=1;verticalAlign=bottom;endArrow=open;dashed=1;endSize=8;" parent="Q3sBBswvDzIRWrq1OGgR-22" edge="1">
          <mxGeometry relative="1" as="geometry">
            <mxPoint x="400" y="280" as="sourcePoint" />
            <mxPoint x="70" y="280" as="targetPoint" />
          </mxGeometry>
        </mxCell>
        <mxCell id="Q3sBBswvDzIRWrq1OGgR-54" value="" style="endArrow=block;endFill=1;html=1;edgeStyle=orthogonalEdgeStyle;align=left;verticalAlign=top;" parent="Q3sBBswvDzIRWrq1OGgR-22" edge="1">
          <mxGeometry x="-1" relative="1" as="geometry">
            <mxPoint x="70" y="310" as="sourcePoint" />
            <mxPoint x="230" y="310" as="targetPoint" />
          </mxGeometry>
        </mxCell>
        <mxCell id="Q3sBBswvDzIRWrq1OGgR-55" value="5" style="edgeLabel;resizable=0;html=1;align=left;verticalAlign=bottom;" parent="Q3sBBswvDzIRWrq1OGgR-54" connectable="0" vertex="1">
          <mxGeometry x="-1" relative="1" as="geometry" />
        </mxCell>
        <mxCell id="Q3sBBswvDzIRWrq1OGgR-56" value="根据open_id和券id查询券" style="edgeLabel;html=1;align=center;verticalAlign=middle;resizable=0;points=[];" parent="Q3sBBswvDzIRWrq1OGgR-54" vertex="1" connectable="0">
          <mxGeometry y="3" relative="1" as="geometry">
            <mxPoint as="offset" />
          </mxGeometry>
        </mxCell>
        <mxCell id="Q3sBBswvDzIRWrq1OGgR-57" value="微信用户券信息" style="html=1;verticalAlign=bottom;endArrow=open;dashed=1;endSize=8;" parent="Q3sBBswvDzIRWrq1OGgR-22" edge="1">
          <mxGeometry relative="1" as="geometry">
            <mxPoint x="230" y="330" as="sourcePoint" />
            <mxPoint x="70" y="330" as="targetPoint" />
          </mxGeometry>
        </mxCell>
        <mxCell id="Q3sBBswvDzIRWrq1OGgR-154" value="" style="endArrow=block;endFill=1;html=1;edgeStyle=orthogonalEdgeStyle;align=left;verticalAlign=top;" parent="Q3sBBswvDzIRWrq1OGgR-22" edge="1">
          <mxGeometry x="-1" relative="1" as="geometry">
            <mxPoint x="70" y="420" as="sourcePoint" />
            <mxPoint x="750" y="420" as="targetPoint" />
          </mxGeometry>
        </mxCell>
        <mxCell id="Q3sBBswvDzIRWrq1OGgR-155" value="7" style="edgeLabel;resizable=0;html=1;align=left;verticalAlign=bottom;" parent="Q3sBBswvDzIRWrq1OGgR-154" connectable="0" vertex="1">
          <mxGeometry x="-1" relative="1" as="geometry" />
        </mxCell>
        <mxCell id="Q3sBBswvDzIRWrq1OGgR-156" value="记录比对结果" style="edgeLabel;html=1;align=center;verticalAlign=middle;resizable=0;points=[];" parent="Q3sBBswvDzIRWrq1OGgR-154" vertex="1" connectable="0">
          <mxGeometry x="0.0588" y="2" relative="1" as="geometry">
            <mxPoint as="offset" />
          </mxGeometry>
        </mxCell>
        <mxCell id="Q3sBBswvDzIRWrq1OGgR-157" value="" style="html=1;verticalAlign=bottom;endArrow=open;dashed=1;endSize=8;" parent="Q3sBBswvDzIRWrq1OGgR-22" edge="1">
          <mxGeometry x="0.25" y="-10" relative="1" as="geometry">
            <mxPoint x="750" y="440" as="sourcePoint" />
            <mxPoint x="70" y="440" as="targetPoint" />
            <mxPoint as="offset" />
          </mxGeometry>
        </mxCell>
        <mxCell id="Q3sBBswvDzIRWrq1OGgR-158" value="返回" style="edgeLabel;html=1;align=center;verticalAlign=middle;resizable=0;points=[];" parent="Q3sBBswvDzIRWrq1OGgR-157" vertex="1" connectable="0">
          <mxGeometry x="-0.0618" y="-1" relative="1" as="geometry">
            <mxPoint as="offset" />
          </mxGeometry>
        </mxCell>
        <mxCell id="Q3sBBswvDzIRWrq1OGgR-23" value="&lt;span style=&quot;color: rgb(50 , 50 , 50) ; font-size: 13px ; background-color: rgba(255 , 255 , 255 , 0.01)&quot;&gt;用户中心&lt;/span&gt;" style="shape=umlLifeline;perimeter=lifelinePerimeter;whiteSpace=wrap;html=1;container=1;collapsible=0;recursiveResize=0;outlineConnect=0;" parent="1" vertex="1">
          <mxGeometry x="570" y="60" width="120" height="610" as="geometry" />
        </mxCell>
        <mxCell id="Q3sBBswvDzIRWrq1OGgR-47" value="" style="html=1;points=[];perimeter=orthogonalPerimeter;" parent="Q3sBBswvDzIRWrq1OGgR-23" vertex="1">
          <mxGeometry x="55" y="240" width="10" height="50" as="geometry" />
        </mxCell>
        <mxCell id="Q3sBBswvDzIRWrq1OGgR-26" value="&lt;span style=&quot;color: rgb(50 , 50 , 50) ; font-size: 13px ; background-color: rgba(255 , 255 , 255 , 0.01)&quot;&gt;微信开放平台&lt;/span&gt;" style="shape=umlLifeline;perimeter=lifelinePerimeter;whiteSpace=wrap;html=1;container=1;collapsible=0;recursiveResize=0;outlineConnect=0;" parent="1" vertex="1">
          <mxGeometry x="400" y="60" width="120" height="610" as="geometry" />
        </mxCell>
        <mxCell id="Q3sBBswvDzIRWrq1OGgR-52" value="" style="html=1;points=[];perimeter=orthogonalPerimeter;" parent="Q3sBBswvDzIRWrq1OGgR-26" vertex="1">
          <mxGeometry x="55" y="300" width="10" height="60" as="geometry" />
        </mxCell>
        <mxCell id="Q3sBBswvDzIRWrq1OGgR-27" value="&lt;span style=&quot;color: rgb(50 , 50 , 50) ; font-size: 13px ; background-color: rgba(255 , 255 , 255 , 0.01)&quot;&gt;mongo镜像maicai库&lt;/span&gt;" style="shape=umlLifeline;perimeter=lifelinePerimeter;whiteSpace=wrap;html=1;container=1;collapsible=0;recursiveResize=0;outlineConnect=0;" parent="1" vertex="1">
          <mxGeometry x="750" y="60" width="130" height="610" as="geometry" />
        </mxCell>
        <mxCell id="Q3sBBswvDzIRWrq1OGgR-41" value="" style="html=1;points=[];perimeter=orthogonalPerimeter;" parent="Q3sBBswvDzIRWrq1OGgR-27" vertex="1">
          <mxGeometry x="60" y="170" width="10" height="80" as="geometry" />
        </mxCell>
        <mxCell id="Q3sBBswvDzIRWrq1OGgR-28" value="&lt;span style=&quot;color: rgb(50 , 50 , 50) ; font-size: 13px ; background-color: rgba(255 , 255 , 255 , 0.01)&quot;&gt;mysql&lt;/span&gt;" style="shape=umlLifeline;perimeter=lifelinePerimeter;whiteSpace=wrap;html=1;container=1;collapsible=0;recursiveResize=0;outlineConnect=0;" parent="1" vertex="1">
          <mxGeometry x="920" y="60" width="120" height="630" as="geometry" />
        </mxCell>
        <mxCell id="Q3sBBswvDzIRWrq1OGgR-31" value="" style="endArrow=block;endFill=1;html=1;align=left;verticalAlign=top;exitX=1.5;exitY=0.238;exitDx=0;exitDy=0;exitPerimeter=0;" parent="1" edge="1">
          <mxGeometry x="-1" relative="1" as="geometry">
            <mxPoint x="80" y="129.99999999999997" as="sourcePoint" />
            <mxPoint x="270" y="130" as="targetPoint" />
          </mxGeometry>
        </mxCell>
        <mxCell id="Q3sBBswvDzIRWrq1OGgR-32" value="1" style="edgeLabel;resizable=0;html=1;align=left;verticalAlign=bottom;" parent="Q3sBBswvDzIRWrq1OGgR-31" connectable="0" vertex="1">
          <mxGeometry x="-1" relative="1" as="geometry" />
        </mxCell>
        <mxCell id="Q3sBBswvDzIRWrq1OGgR-33" value="每天凌晨1点调度" style="edgeLabel;html=1;align=center;verticalAlign=middle;resizable=0;points=[];" parent="Q3sBBswvDzIRWrq1OGgR-31" vertex="1" connectable="0">
          <mxGeometry x="-0.1221" y="-3" relative="1" as="geometry">
            <mxPoint as="offset" />
          </mxGeometry>
        </mxCell>
        <mxCell id="Q3sBBswvDzIRWrq1OGgR-34" value="" style="html=1;points=[];perimeter=orthogonalPerimeter;" parent="1" vertex="1">
          <mxGeometry x="975" y="170" width="10" height="50" as="geometry" />
        </mxCell>
        <mxCell id="Q3sBBswvDzIRWrq1OGgR-39" value="" style="html=1;verticalAlign=bottom;endArrow=open;dashed=1;endSize=8;exitX=-0.1;exitY=0.563;exitDx=0;exitDy=0;exitPerimeter=0;" parent="1" source="Q3sBBswvDzIRWrq1OGgR-34" edge="1">
          <mxGeometry relative="1" as="geometry">
            <mxPoint x="960" y="210" as="sourcePoint" />
            <mxPoint x="290" y="198" as="targetPoint" />
          </mxGeometry>
        </mxCell>
        <mxCell id="Q3sBBswvDzIRWrq1OGgR-40" value="&lt;span style=&quot;font-size: 11px&quot;&gt;返回商家券批次id&lt;/span&gt;" style="edgeLabel;html=1;align=center;verticalAlign=middle;resizable=0;points=[];" parent="Q3sBBswvDzIRWrq1OGgR-39" vertex="1" connectable="0">
          <mxGeometry x="0.0627" y="2" relative="1" as="geometry">
            <mxPoint as="offset" />
          </mxGeometry>
        </mxCell>
        <mxCell id="Q3sBBswvDzIRWrq1OGgR-60" value="比对两份券信息" style="edgeStyle=orthogonalEdgeStyle;html=1;align=left;spacingLeft=2;endArrow=block;rounded=0;" parent="1" edge="1">
          <mxGeometry relative="1" as="geometry">
            <mxPoint x="289" y="420" as="sourcePoint" />
            <Array as="points">
              <mxPoint x="289" y="420" />
              <mxPoint x="330" y="420" />
              <mxPoint x="330" y="460" />
            </Array>
            <mxPoint x="289" y="460" as="targetPoint" />
          </mxGeometry>
        </mxCell>
        <mxCell id="Q3sBBswvDzIRWrq1OGgR-73" value="6" style="edgeLabel;html=1;align=center;verticalAlign=middle;resizable=0;points=[];" parent="Q3sBBswvDzIRWrq1OGgR-60" vertex="1" connectable="0">
          <mxGeometry x="-0.9836" y="3" relative="1" as="geometry">
            <mxPoint as="offset" />
          </mxGeometry>
        </mxCell>
        <mxCell id="Q3sBBswvDzIRWrq1OGgR-83" value="结束" style="html=1;verticalAlign=bottom;endArrow=open;dashed=1;endSize=8;" parent="1" target="Q3sBBswvDzIRWrq1OGgR-21" edge="1">
          <mxGeometry relative="1" as="geometry">
            <mxPoint x="270" y="610" as="sourcePoint" />
            <mxPoint x="90" y="570" as="targetPoint" />
          </mxGeometry>
        </mxCell>
        <mxCell id="Q3sBBswvDzIRWrq1OGgR-88" value="9" style="edgeLabel;html=1;align=center;verticalAlign=middle;resizable=0;points=[];" parent="Q3sBBswvDzIRWrq1OGgR-83" vertex="1" connectable="0">
          <mxGeometry x="-0.8889" y="-1" relative="1" as="geometry">
            <mxPoint as="offset" />
          </mxGeometry>
        </mxCell>
        <mxCell id="Q3sBBswvDzIRWrq1OGgR-89" value="比对异常" style="shape=umlFrame;whiteSpace=wrap;html=1;" parent="1" vertex="1">
          <mxGeometry x="210" y="510" width="290" height="40" as="geometry" />
        </mxCell>
        <mxCell id="Q3sBBswvDzIRWrq1OGgR-95" value="cat日志打点" style="edgeStyle=orthogonalEdgeStyle;html=1;align=left;spacingLeft=2;endArrow=block;rounded=0;entryX=1;entryY=0;" parent="1" edge="1">
          <mxGeometry relative="1" as="geometry">
            <mxPoint x="285" y="500" as="sourcePoint" />
            <Array as="points">
              <mxPoint x="315" y="520" />
            </Array>
            <mxPoint x="290" y="540" as="targetPoint" />
          </mxGeometry>
        </mxCell>
        <mxCell id="Q3sBBswvDzIRWrq1OGgR-159" value="8" style="edgeLabel;html=1;align=center;verticalAlign=middle;resizable=0;points=[];" parent="Q3sBBswvDzIRWrq1OGgR-95" vertex="1" connectable="0">
          <mxGeometry x="-0.7474" y="4" relative="1" as="geometry">
            <mxPoint as="offset" />
          </mxGeometry>
        </mxCell>
        <mxCell id="Q3sBBswvDzIRWrq1OGgR-96" value="监控中心" style="shape=umlLifeline;perimeter=lifelinePerimeter;whiteSpace=wrap;html=1;container=1;collapsible=0;recursiveResize=0;outlineConnect=0;" parent="1" vertex="1">
          <mxGeometry x="1110" y="60" width="120" height="620" as="geometry" />
        </mxCell>
        <mxCell id="Q3sBBswvDzIRWrq1OGgR-98" value="" style="html=1;points=[];perimeter=orthogonalPerimeter;" parent="Q3sBBswvDzIRWrq1OGgR-96" vertex="1">
          <mxGeometry x="55" y="485" width="10" height="80" as="geometry" />
        </mxCell>
        <mxCell id="Q3sBBswvDzIRWrq1OGgR-100" value="告警规则配置&lt;br&gt;与告警触发" style="edgeStyle=orthogonalEdgeStyle;html=1;align=left;spacingLeft=2;endArrow=block;rounded=0;" parent="Q3sBBswvDzIRWrq1OGgR-96" edge="1">
          <mxGeometry relative="1" as="geometry">
            <mxPoint x="70" y="530" as="sourcePoint" />
            <Array as="points">
              <mxPoint x="120" y="530" />
              <mxPoint x="120" y="550" />
            </Array>
            <mxPoint x="70" y="550" as="targetPoint" />
          </mxGeometry>
        </mxCell>
        <mxCell id="Q3sBBswvDzIRWrq1OGgR-101" value="xxl-job" style="shape=umlLifeline;perimeter=lifelinePerimeter;whiteSpace=wrap;html=1;container=1;collapsible=0;recursiveResize=0;outlineConnect=0;" parent="1" vertex="1">
          <mxGeometry x="30" y="930" width="100" height="610" as="geometry" />
        </mxCell>
        <mxCell id="Q3sBBswvDzIRWrq1OGgR-112" value="" style="endArrow=block;endFill=1;html=1;edgeStyle=orthogonalEdgeStyle;align=left;verticalAlign=top;" parent="Q3sBBswvDzIRWrq1OGgR-101" edge="1">
          <mxGeometry x="-1" relative="1" as="geometry">
            <mxPoint x="60" y="80" as="sourcePoint" />
            <mxPoint x="220" y="80" as="targetPoint" />
          </mxGeometry>
        </mxCell>
        <mxCell id="Q3sBBswvDzIRWrq1OGgR-113" value="1" style="edgeLabel;resizable=0;html=1;align=left;verticalAlign=bottom;" parent="Q3sBBswvDzIRWrq1OGgR-112" connectable="0" vertex="1">
          <mxGeometry x="-1" relative="1" as="geometry" />
        </mxCell>
        <mxCell id="Q3sBBswvDzIRWrq1OGgR-114" value="凌晨1点调度" style="edgeLabel;html=1;align=center;verticalAlign=middle;resizable=0;points=[];" parent="Q3sBBswvDzIRWrq1OGgR-112" vertex="1" connectable="0">
          <mxGeometry x="0.025" y="-2" relative="1" as="geometry">
            <mxPoint as="offset" />
          </mxGeometry>
        </mxCell>
        <mxCell id="Q3sBBswvDzIRWrq1OGgR-102" value="&lt;span style=&quot;color: rgb(50 , 50 , 50) ; font-size: 13px ; background-color: rgba(255 , 255 , 255 , 0.01)&quot;&gt;promotask&lt;/span&gt;" style="shape=umlLifeline;perimeter=lifelinePerimeter;whiteSpace=wrap;html=1;container=1;collapsible=0;recursiveResize=0;outlineConnect=0;" parent="1" vertex="1">
          <mxGeometry x="210" y="930" width="100" height="650" as="geometry" />
        </mxCell>
        <mxCell id="Q3sBBswvDzIRWrq1OGgR-115" value="" style="html=1;points=[];perimeter=orthogonalPerimeter;" parent="Q3sBBswvDzIRWrq1OGgR-102" vertex="1">
          <mxGeometry x="45" y="70" width="10" height="520" as="geometry" />
        </mxCell>
        <mxCell id="Q3sBBswvDzIRWrq1OGgR-117" value="" style="endArrow=block;endFill=1;html=1;edgeStyle=orthogonalEdgeStyle;align=left;verticalAlign=top;entryX=-0.2;entryY=0.125;entryDx=0;entryDy=0;entryPerimeter=0;" parent="Q3sBBswvDzIRWrq1OGgR-102" target="Q3sBBswvDzIRWrq1OGgR-116" edge="1">
          <mxGeometry x="-1" relative="1" as="geometry">
            <mxPoint x="60" y="100" as="sourcePoint" />
            <mxPoint x="220" y="100" as="targetPoint" />
          </mxGeometry>
        </mxCell>
        <mxCell id="Q3sBBswvDzIRWrq1OGgR-118" value="2" style="edgeLabel;resizable=0;html=1;align=left;verticalAlign=bottom;" parent="Q3sBBswvDzIRWrq1OGgR-117" connectable="0" vertex="1">
          <mxGeometry x="-1" relative="1" as="geometry" />
        </mxCell>
        <mxCell id="Q3sBBswvDzIRWrq1OGgR-120" value="分页查询outer_ticket_bind" style="edgeLabel;html=1;align=center;verticalAlign=middle;resizable=0;points=[];" parent="Q3sBBswvDzIRWrq1OGgR-117" vertex="1" connectable="0">
          <mxGeometry x="-0.096" y="2" relative="1" as="geometry">
            <mxPoint as="offset" />
          </mxGeometry>
        </mxCell>
        <mxCell id="Q3sBBswvDzIRWrq1OGgR-134" value="比对两份券信息" style="edgeStyle=orthogonalEdgeStyle;html=1;align=left;spacingLeft=2;endArrow=block;rounded=0;entryX=1;entryY=0;" parent="Q3sBBswvDzIRWrq1OGgR-102" edge="1">
          <mxGeometry relative="1" as="geometry">
            <mxPoint x="55" y="340" as="sourcePoint" />
            <Array as="points">
              <mxPoint x="85" y="340" />
            </Array>
            <mxPoint x="60" y="360" as="targetPoint" />
          </mxGeometry>
        </mxCell>
        <mxCell id="Q3sBBswvDzIRWrq1OGgR-136" value="" style="endArrow=block;endFill=1;html=1;edgeStyle=orthogonalEdgeStyle;align=left;verticalAlign=top;" parent="Q3sBBswvDzIRWrq1OGgR-102" edge="1">
          <mxGeometry x="-1" relative="1" as="geometry">
            <mxPoint x="60" y="400" as="sourcePoint" />
            <mxPoint x="540" y="400" as="targetPoint" />
          </mxGeometry>
        </mxCell>
        <mxCell id="Q3sBBswvDzIRWrq1OGgR-137" value="6" style="edgeLabel;resizable=0;html=1;align=left;verticalAlign=bottom;" parent="Q3sBBswvDzIRWrq1OGgR-136" connectable="0" vertex="1">
          <mxGeometry x="-1" relative="1" as="geometry" />
        </mxCell>
        <mxCell id="Q3sBBswvDzIRWrq1OGgR-138" value="记录比对结果" style="edgeLabel;html=1;align=center;verticalAlign=middle;resizable=0;points=[];" parent="Q3sBBswvDzIRWrq1OGgR-136" vertex="1" connectable="0">
          <mxGeometry x="-0.0833" y="-2" relative="1" as="geometry">
            <mxPoint as="offset" />
          </mxGeometry>
        </mxCell>
        <mxCell id="Q3sBBswvDzIRWrq1OGgR-139" value="返回" style="html=1;verticalAlign=bottom;endArrow=open;dashed=1;endSize=8;" parent="Q3sBBswvDzIRWrq1OGgR-102" edge="1">
          <mxGeometry relative="1" as="geometry">
            <mxPoint x="530" y="430" as="sourcePoint" />
            <mxPoint x="60" y="430" as="targetPoint" />
          </mxGeometry>
        </mxCell>
        <mxCell id="Q3sBBswvDzIRWrq1OGgR-141" value="cat日志打点" style="edgeStyle=orthogonalEdgeStyle;html=1;align=left;spacingLeft=2;endArrow=block;rounded=0;entryX=1;entryY=0;" parent="Q3sBBswvDzIRWrq1OGgR-102" edge="1">
          <mxGeometry relative="1" as="geometry">
            <mxPoint x="55" y="460" as="sourcePoint" />
            <Array as="points">
              <mxPoint x="85" y="460" />
            </Array>
            <mxPoint x="60" y="480" as="targetPoint" />
          </mxGeometry>
        </mxCell>
        <mxCell id="Q3sBBswvDzIRWrq1OGgR-151" value="7" style="edgeLabel;html=1;align=center;verticalAlign=middle;resizable=0;points=[];" parent="Q3sBBswvDzIRWrq1OGgR-141" vertex="1" connectable="0">
          <mxGeometry x="-0.7067" y="4" relative="1" as="geometry">
            <mxPoint as="offset" />
          </mxGeometry>
        </mxCell>
        <mxCell id="Q3sBBswvDzIRWrq1OGgR-162" value="异步收集日志" style="endArrow=open;endSize=12;dashed=1;html=1;entryX=-0.3;entryY=0.613;entryDx=0;entryDy=0;entryPerimeter=0;" parent="Q3sBBswvDzIRWrq1OGgR-102" target="Q3sBBswvDzIRWrq1OGgR-142" edge="1">
          <mxGeometry width="160" relative="1" as="geometry">
            <mxPoint x="60" y="550" as="sourcePoint" />
            <mxPoint x="690" y="550" as="targetPoint" />
          </mxGeometry>
        </mxCell>
        <mxCell id="Q3sBBswvDzIRWrq1OGgR-105" value="&lt;font color=&quot;#323232&quot;&gt;&lt;span style=&quot;font-size: 13px ; background-color: rgba(255 , 255 , 255 , 0.01)&quot;&gt;微信开放平台&lt;/span&gt;&lt;/font&gt;" style="shape=umlLifeline;perimeter=lifelinePerimeter;whiteSpace=wrap;html=1;container=1;collapsible=0;recursiveResize=0;outlineConnect=0;" parent="1" vertex="1">
          <mxGeometry x="380" y="930" width="100" height="600" as="geometry" />
        </mxCell>
        <mxCell id="Q3sBBswvDzIRWrq1OGgR-122" value="" style="html=1;points=[];perimeter=orthogonalPerimeter;" parent="Q3sBBswvDzIRWrq1OGgR-105" vertex="1">
          <mxGeometry x="45" y="159" width="10" height="51" as="geometry" />
        </mxCell>
        <mxCell id="Q3sBBswvDzIRWrq1OGgR-108" value="&lt;font color=&quot;#323232&quot;&gt;&lt;span style=&quot;font-size: 13px ; background-color: rgba(255 , 255 , 255 , 0.01)&quot;&gt;mongo镜像库&lt;/span&gt;&lt;/font&gt;" style="shape=umlLifeline;perimeter=lifelinePerimeter;whiteSpace=wrap;html=1;container=1;collapsible=0;recursiveResize=0;outlineConnect=0;" parent="1" vertex="1">
          <mxGeometry x="550" y="930" width="100" height="600" as="geometry" />
        </mxCell>
        <mxCell id="Q3sBBswvDzIRWrq1OGgR-128" value="" style="html=1;points=[];perimeter=orthogonalPerimeter;" parent="Q3sBBswvDzIRWrq1OGgR-108" vertex="1">
          <mxGeometry x="45" y="220" width="10" height="80" as="geometry" />
        </mxCell>
        <mxCell id="Q3sBBswvDzIRWrq1OGgR-109" value="&lt;font color=&quot;#323232&quot;&gt;&lt;span style=&quot;font-size: 13px ; background-color: rgba(255 , 255 , 255 , 0.01)&quot;&gt;vouchercore的mysql库&lt;/span&gt;&lt;/font&gt;" style="shape=umlLifeline;perimeter=lifelinePerimeter;whiteSpace=wrap;html=1;container=1;collapsible=0;recursiveResize=0;outlineConnect=0;" parent="1" vertex="1">
          <mxGeometry x="710" y="930" width="100" height="640" as="geometry" />
        </mxCell>
        <mxCell id="Q3sBBswvDzIRWrq1OGgR-135" value="" style="html=1;points=[];perimeter=orthogonalPerimeter;" parent="Q3sBBswvDzIRWrq1OGgR-109" vertex="1">
          <mxGeometry x="45" y="370" width="10" height="80" as="geometry" />
        </mxCell>
        <mxCell id="Q3sBBswvDzIRWrq1OGgR-110" value="&lt;font color=&quot;#323232&quot;&gt;&lt;span style=&quot;font-size: 13px ; background-color: rgba(255 , 255 , 255 , 0.01)&quot;&gt;监控中心&lt;/span&gt;&lt;/font&gt;" style="shape=umlLifeline;perimeter=lifelinePerimeter;whiteSpace=wrap;html=1;container=1;collapsible=0;recursiveResize=0;outlineConnect=0;" parent="1" vertex="1">
          <mxGeometry x="860" y="930" width="110" height="600" as="geometry" />
        </mxCell>
        <mxCell id="Q3sBBswvDzIRWrq1OGgR-142" value="" style="html=1;points=[];perimeter=orthogonalPerimeter;" parent="Q3sBBswvDzIRWrq1OGgR-110" vertex="1">
          <mxGeometry x="50" y="500" width="10" height="80" as="geometry" />
        </mxCell>
        <mxCell id="Q3sBBswvDzIRWrq1OGgR-145" value="配置监控规则与预警" style="edgeStyle=orthogonalEdgeStyle;html=1;align=left;spacingLeft=2;endArrow=block;rounded=0;exitX=1.3;exitY=0.575;exitDx=0;exitDy=0;exitPerimeter=0;" parent="Q3sBBswvDzIRWrq1OGgR-110" source="Q3sBBswvDzIRWrq1OGgR-142" edge="1">
          <mxGeometry relative="1" as="geometry">
            <mxPoint x="60" y="530" as="sourcePoint" />
            <Array as="points">
              <mxPoint x="90" y="546" />
              <mxPoint x="90" y="570" />
            </Array>
            <mxPoint x="65" y="570" as="targetPoint" />
          </mxGeometry>
        </mxCell>
        <mxCell id="Q3sBBswvDzIRWrq1OGgR-116" value="" style="html=1;points=[];perimeter=orthogonalPerimeter;" parent="1" vertex="1">
          <mxGeometry x="755" y="1020" width="10" height="60" as="geometry" />
        </mxCell>
        <mxCell id="Q3sBBswvDzIRWrq1OGgR-121" value="商家券批次号" style="html=1;verticalAlign=bottom;endArrow=open;dashed=1;endSize=8;" parent="1" edge="1">
          <mxGeometry relative="1" as="geometry">
            <mxPoint x="750" y="1060" as="sourcePoint" />
            <mxPoint x="270" y="1060" as="targetPoint" />
            <Array as="points" />
          </mxGeometry>
        </mxCell>
        <mxCell id="Q3sBBswvDzIRWrq1OGgR-123" value="" style="endArrow=block;endFill=1;html=1;edgeStyle=orthogonalEdgeStyle;align=left;verticalAlign=top;" parent="1" edge="1">
          <mxGeometry x="-1" relative="1" as="geometry">
            <mxPoint x="270" y="1100" as="sourcePoint" />
            <mxPoint x="420" y="1100" as="targetPoint" />
            <Array as="points">
              <mxPoint x="380" y="1100" />
              <mxPoint x="380" y="1100" />
            </Array>
          </mxGeometry>
        </mxCell>
        <mxCell id="Q3sBBswvDzIRWrq1OGgR-124" value="3" style="edgeLabel;resizable=0;html=1;align=left;verticalAlign=bottom;" parent="Q3sBBswvDzIRWrq1OGgR-123" connectable="0" vertex="1">
          <mxGeometry x="-1" relative="1" as="geometry" />
        </mxCell>
        <mxCell id="Q3sBBswvDzIRWrq1OGgR-125" value="根据id查询微信商家券" style="edgeLabel;html=1;align=center;verticalAlign=middle;resizable=0;points=[];" parent="Q3sBBswvDzIRWrq1OGgR-123" vertex="1" connectable="0">
          <mxGeometry x="0.0667" y="-2" relative="1" as="geometry">
            <mxPoint x="-1" as="offset" />
          </mxGeometry>
        </mxCell>
        <mxCell id="Q3sBBswvDzIRWrq1OGgR-127" value="微信商家券" style="html=1;verticalAlign=bottom;endArrow=open;dashed=1;endSize=8;" parent="1" edge="1">
          <mxGeometry relative="1" as="geometry">
            <mxPoint x="420" y="1130" as="sourcePoint" />
            <mxPoint x="270" y="1130" as="targetPoint" />
          </mxGeometry>
        </mxCell>
        <mxCell id="Q3sBBswvDzIRWrq1OGgR-129" value="" style="endArrow=block;endFill=1;html=1;edgeStyle=orthogonalEdgeStyle;align=left;verticalAlign=top;entryX=-0.5;entryY=0.363;entryDx=0;entryDy=0;entryPerimeter=0;" parent="1" target="Q3sBBswvDzIRWrq1OGgR-128" edge="1">
          <mxGeometry x="-1" relative="1" as="geometry">
            <mxPoint x="270" y="1179.5" as="sourcePoint" />
            <mxPoint x="430" y="1179.5" as="targetPoint" />
          </mxGeometry>
        </mxCell>
        <mxCell id="Q3sBBswvDzIRWrq1OGgR-130" value="4" style="edgeLabel;resizable=0;html=1;align=left;verticalAlign=bottom;" parent="Q3sBBswvDzIRWrq1OGgR-129" connectable="0" vertex="1">
          <mxGeometry x="-1" relative="1" as="geometry" />
        </mxCell>
        <mxCell id="Q3sBBswvDzIRWrq1OGgR-131" value="查询券模版信息coupon_ticket" style="edgeLabel;html=1;align=center;verticalAlign=middle;resizable=0;points=[];" parent="Q3sBBswvDzIRWrq1OGgR-129" vertex="1" connectable="0">
          <mxGeometry x="-0.0328" y="-1" relative="1" as="geometry">
            <mxPoint y="1" as="offset" />
          </mxGeometry>
        </mxCell>
        <mxCell id="Q3sBBswvDzIRWrq1OGgR-132" value="券模版信息" style="html=1;verticalAlign=bottom;endArrow=open;dashed=1;endSize=8;" parent="1" edge="1">
          <mxGeometry relative="1" as="geometry">
            <mxPoint x="590" y="1210" as="sourcePoint" />
            <mxPoint x="270" y="1210" as="targetPoint" />
          </mxGeometry>
        </mxCell>
        <mxCell id="Q3sBBswvDzIRWrq1OGgR-146" value="&amp;nbsp; 5" style="text;html=1;align=center;verticalAlign=middle;resizable=0;points=[];autosize=1;strokeColor=none;" parent="1" vertex="1">
          <mxGeometry x="255" y="1250" width="30" height="20" as="geometry" />
        </mxCell>
        <mxCell id="Q3sBBswvDzIRWrq1OGgR-150" value="比对结束" style="html=1;verticalAlign=bottom;endArrow=open;dashed=1;endSize=8;" parent="1" edge="1">
          <mxGeometry relative="1" as="geometry">
            <mxPoint x="250" y="1450" as="sourcePoint" />
            <mxPoint x="80" y="1450" as="targetPoint" />
          </mxGeometry>
        </mxCell>
        <mxCell id="Q3sBBswvDzIRWrq1OGgR-153" value="" style="html=1;points=[];perimeter=orthogonalPerimeter;" parent="1" vertex="1">
          <mxGeometry x="975" y="440" width="10" height="80" as="geometry" />
        </mxCell>
        <mxCell id="Q3sBBswvDzIRWrq1OGgR-161" value="8" style="text;html=1;align=center;verticalAlign=middle;resizable=0;points=[];autosize=1;strokeColor=none;" parent="1" vertex="1">
          <mxGeometry x="230" y="1430" width="20" height="20" as="geometry" />
        </mxCell>
        <mxCell id="Q3sBBswvDzIRWrq1OGgR-97" value="异步推送日志" style="endArrow=open;endSize=12;dashed=1;html=1;" parent="1" edge="1">
          <mxGeometry width="160" relative="1" as="geometry">
            <mxPoint x="290" y="600" as="sourcePoint" />
            <mxPoint x="1160" y="600" as="targetPoint" />
          </mxGeometry>
        </mxCell>
        <mxCell id="Q3sBBswvDzIRWrq1OGgR-164" value="比对不一致" style="shape=umlFrame;whiteSpace=wrap;html=1;strokeColor=#000000;fillColor=#FFFFFF;" parent="1" vertex="1">
          <mxGeometry x="190" y="1380" width="220" height="40" as="geometry" />
        </mxCell>
        <mxCell id="-2UiLBpFi5a7ax2FoRXW-1" value="promoevent" style="shape=umlLifeline;perimeter=lifelinePerimeter;whiteSpace=wrap;html=1;container=1;collapsible=0;recursiveResize=0;outlineConnect=0;" parent="1" vertex="1">
          <mxGeometry x="270" y="1600" width="140" height="870" as="geometry" />
        </mxCell>
        <mxCell id="-2UiLBpFi5a7ax2FoRXW-4" value="" style="html=1;points=[];perimeter=orthogonalPerimeter;" parent="-2UiLBpFi5a7ax2FoRXW-1" vertex="1">
          <mxGeometry x="65" y="74" width="10" height="706" as="geometry" />
        </mxCell>
        <mxCell id="-2UiLBpFi5a7ax2FoRXW-8" value="获取活动&amp;amp;奖品数据" style="endArrow=block;endFill=1;html=1;align=left;verticalAlign=top;entryX=-0.2;entryY=0.138;entryDx=0;entryDy=0;entryPerimeter=0;" parent="-2UiLBpFi5a7ax2FoRXW-1" target="-2UiLBpFi5a7ax2FoRXW-7" edge="1">
          <mxGeometry x="-1" relative="1" as="geometry">
            <mxPoint x="80" y="110" as="sourcePoint" />
            <mxPoint x="240" y="110" as="targetPoint" />
          </mxGeometry>
        </mxCell>
        <mxCell id="-2UiLBpFi5a7ax2FoRXW-9" value="1" style="edgeLabel;resizable=0;html=1;align=left;verticalAlign=bottom;" parent="-2UiLBpFi5a7ax2FoRXW-8" connectable="0" vertex="1">
          <mxGeometry x="-1" relative="1" as="geometry" />
        </mxCell>
        <mxCell id="-2UiLBpFi5a7ax2FoRXW-13" value="活动&amp;amp;奖品数据" style="html=1;verticalAlign=bottom;endArrow=open;dashed=1;endSize=8;" parent="-2UiLBpFi5a7ax2FoRXW-1" edge="1">
          <mxGeometry relative="1" as="geometry">
            <mxPoint x="320" y="160" as="sourcePoint" />
            <mxPoint x="80" y="160" as="targetPoint" />
          </mxGeometry>
        </mxCell>
        <mxCell id="-2UiLBpFi5a7ax2FoRXW-15" value="获取奖品规则" style="endArrow=block;endFill=1;html=1;align=left;verticalAlign=top;entryX=-0.3;entryY=0.138;entryDx=0;entryDy=0;entryPerimeter=0;" parent="-2UiLBpFi5a7ax2FoRXW-1" target="-2UiLBpFi5a7ax2FoRXW-14" edge="1">
          <mxGeometry x="-1" relative="1" as="geometry">
            <mxPoint x="80" y="210" as="sourcePoint" />
            <mxPoint x="240" y="210" as="targetPoint" />
          </mxGeometry>
        </mxCell>
        <mxCell id="-2UiLBpFi5a7ax2FoRXW-16" value="2" style="edgeLabel;resizable=0;html=1;align=left;verticalAlign=bottom;" parent="-2UiLBpFi5a7ax2FoRXW-15" connectable="0" vertex="1">
          <mxGeometry x="-1" relative="1" as="geometry" />
        </mxCell>
        <mxCell id="-2UiLBpFi5a7ax2FoRXW-19" value="&lt;span style=&quot;font-size: 11px&quot;&gt;查询已邀请人数cumulative&lt;/span&gt;" style="endArrow=block;endFill=1;html=1;align=left;verticalAlign=top;entryX=-0.2;entryY=0.2;entryDx=0;entryDy=0;entryPerimeter=0;" parent="-2UiLBpFi5a7ax2FoRXW-1" target="-2UiLBpFi5a7ax2FoRXW-18" edge="1">
          <mxGeometry x="-1" relative="1" as="geometry">
            <mxPoint x="80" y="300" as="sourcePoint" />
            <mxPoint x="240" y="300" as="targetPoint" />
          </mxGeometry>
        </mxCell>
        <mxCell id="-2UiLBpFi5a7ax2FoRXW-20" value="3" style="edgeLabel;resizable=0;html=1;align=left;verticalAlign=bottom;" parent="-2UiLBpFi5a7ax2FoRXW-19" connectable="0" vertex="1">
          <mxGeometry x="-1" relative="1" as="geometry" />
        </mxCell>
        <mxCell id="-2UiLBpFi5a7ax2FoRXW-21" value="邀请总数" style="html=1;verticalAlign=bottom;endArrow=open;dashed=1;endSize=8;" parent="-2UiLBpFi5a7ax2FoRXW-1" edge="1">
          <mxGeometry relative="1" as="geometry">
            <mxPoint x="320" y="340" as="sourcePoint" />
            <mxPoint x="80" y="340" as="targetPoint" />
          </mxGeometry>
        </mxCell>
        <mxCell id="-2UiLBpFi5a7ax2FoRXW-23" value="4 邀请人总上限判断" style="edgeStyle=orthogonalEdgeStyle;html=1;align=left;spacingLeft=2;endArrow=block;rounded=0;entryX=1;entryY=0;" parent="-2UiLBpFi5a7ax2FoRXW-1" edge="1">
          <mxGeometry relative="1" as="geometry">
            <mxPoint x="80" y="360" as="sourcePoint" />
            <Array as="points">
              <mxPoint x="110" y="360" />
            </Array>
            <mxPoint x="85" y="380" as="targetPoint" />
          </mxGeometry>
        </mxCell>
        <mxCell id="-2UiLBpFi5a7ax2FoRXW-27" value="5 邀请活动判断" style="edgeStyle=orthogonalEdgeStyle;html=1;align=left;spacingLeft=2;endArrow=block;rounded=0;entryX=1;entryY=0;" parent="-2UiLBpFi5a7ax2FoRXW-1" edge="1">
          <mxGeometry relative="1" as="geometry">
            <mxPoint x="80" y="400" as="sourcePoint" />
            <Array as="points">
              <mxPoint x="110" y="400" />
            </Array>
            <mxPoint x="85" y="420" as="targetPoint" />
          </mxGeometry>
        </mxCell>
        <mxCell id="-2UiLBpFi5a7ax2FoRXW-33" value="支付笔数查询" style="endArrow=block;endFill=1;html=1;edgeStyle=orthogonalEdgeStyle;align=left;verticalAlign=top;entryX=-0.3;entryY=0.2;entryDx=0;entryDy=0;entryPerimeter=0;" parent="-2UiLBpFi5a7ax2FoRXW-1" target="-2UiLBpFi5a7ax2FoRXW-32" edge="1">
          <mxGeometry x="-1" relative="1" as="geometry">
            <mxPoint x="80" y="490" as="sourcePoint" />
            <mxPoint x="240" y="490" as="targetPoint" />
          </mxGeometry>
        </mxCell>
        <mxCell id="-2UiLBpFi5a7ax2FoRXW-34" value="7" style="edgeLabel;resizable=0;html=1;align=left;verticalAlign=bottom;" parent="-2UiLBpFi5a7ax2FoRXW-33" connectable="0" vertex="1">
          <mxGeometry x="-1" relative="1" as="geometry" />
        </mxCell>
        <mxCell id="-2UiLBpFi5a7ax2FoRXW-35" value="支付笔数" style="html=1;verticalAlign=bottom;endArrow=open;dashed=1;endSize=8;" parent="-2UiLBpFi5a7ax2FoRXW-1" source="-2UiLBpFi5a7ax2FoRXW-6" edge="1">
          <mxGeometry relative="1" as="geometry">
            <mxPoint x="160" y="530" as="sourcePoint" />
            <mxPoint x="80" y="530" as="targetPoint" />
            <Array as="points">
              <mxPoint x="260" y="530" />
            </Array>
          </mxGeometry>
        </mxCell>
        <mxCell id="-2UiLBpFi5a7ax2FoRXW-37" value="支付比数判断" style="edgeStyle=orthogonalEdgeStyle;html=1;align=left;spacingLeft=2;endArrow=block;rounded=0;entryX=1;entryY=0;" parent="-2UiLBpFi5a7ax2FoRXW-1" edge="1">
          <mxGeometry relative="1" as="geometry">
            <mxPoint x="80" y="550" as="sourcePoint" />
            <Array as="points">
              <mxPoint x="110" y="550" />
            </Array>
            <mxPoint x="85" y="570" as="targetPoint" />
          </mxGeometry>
        </mxCell>
        <mxCell id="-2UiLBpFi5a7ax2FoRXW-46" value="查询获奖记录" style="endArrow=block;endFill=1;html=1;edgeStyle=orthogonalEdgeStyle;align=left;verticalAlign=top;entryX=-0.4;entryY=0.125;entryDx=0;entryDy=0;entryPerimeter=0;" parent="-2UiLBpFi5a7ax2FoRXW-1" target="-2UiLBpFi5a7ax2FoRXW-45" edge="1">
          <mxGeometry x="-1" relative="1" as="geometry">
            <mxPoint x="80" y="610" as="sourcePoint" />
            <mxPoint x="240" y="610" as="targetPoint" />
          </mxGeometry>
        </mxCell>
        <mxCell id="-2UiLBpFi5a7ax2FoRXW-47" value="8" style="edgeLabel;resizable=0;html=1;align=left;verticalAlign=bottom;" parent="-2UiLBpFi5a7ax2FoRXW-46" connectable="0" vertex="1">
          <mxGeometry x="-1" relative="1" as="geometry" />
        </mxCell>
        <mxCell id="-2UiLBpFi5a7ax2FoRXW-48" value="获奖记录" style="html=1;verticalAlign=bottom;endArrow=open;dashed=1;endSize=8;" parent="-2UiLBpFi5a7ax2FoRXW-1" edge="1">
          <mxGeometry relative="1" as="geometry">
            <mxPoint x="320" y="650" as="sourcePoint" />
            <mxPoint x="80" y="650" as="targetPoint" />
          </mxGeometry>
        </mxCell>
        <mxCell id="-2UiLBpFi5a7ax2FoRXW-59" value="获取发奖结果" style="endArrow=block;endFill=1;html=1;align=left;verticalAlign=top;entryX=-0.2;entryY=0.35;entryDx=0;entryDy=0;entryPerimeter=0;" parent="-2UiLBpFi5a7ax2FoRXW-1" target="-2UiLBpFi5a7ax2FoRXW-58" edge="1">
          <mxGeometry x="-1" relative="1" as="geometry">
            <mxPoint x="80" y="690" as="sourcePoint" />
            <mxPoint x="240" y="690" as="targetPoint" />
          </mxGeometry>
        </mxCell>
        <mxCell id="-2UiLBpFi5a7ax2FoRXW-60" value="9" style="edgeLabel;resizable=0;html=1;align=left;verticalAlign=bottom;" parent="-2UiLBpFi5a7ax2FoRXW-59" connectable="0" vertex="1">
          <mxGeometry x="-1" relative="1" as="geometry" />
        </mxCell>
        <mxCell id="-2UiLBpFi5a7ax2FoRXW-61" value="发奖结果" style="html=1;verticalAlign=bottom;endArrow=open;dashed=1;endSize=8;exitX=-0.3;exitY=0.688;exitDx=0;exitDy=0;exitPerimeter=0;" parent="-2UiLBpFi5a7ax2FoRXW-1" source="-2UiLBpFi5a7ax2FoRXW-58" edge="1">
          <mxGeometry relative="1" as="geometry">
            <mxPoint x="160" y="730" as="sourcePoint" />
            <mxPoint x="80" y="715" as="targetPoint" />
          </mxGeometry>
        </mxCell>
        <mxCell id="-2UiLBpFi5a7ax2FoRXW-69" value="10 cat日志打点" style="edgeStyle=orthogonalEdgeStyle;html=1;align=left;spacingLeft=2;endArrow=block;rounded=0;entryX=1;entryY=0;" parent="-2UiLBpFi5a7ax2FoRXW-1" edge="1">
          <mxGeometry relative="1" as="geometry">
            <mxPoint x="85" y="730" as="sourcePoint" />
            <Array as="points">
              <mxPoint x="115" y="730" />
            </Array>
            <mxPoint x="80" y="750" as="targetPoint" />
          </mxGeometry>
        </mxCell>
        <mxCell id="-2UiLBpFi5a7ax2FoRXW-3" value="rocketmq" style="shape=umlLifeline;perimeter=lifelinePerimeter;whiteSpace=wrap;html=1;container=1;collapsible=0;recursiveResize=0;outlineConnect=0;" parent="1" vertex="1">
          <mxGeometry x="54" y="1600" width="126" height="770" as="geometry" />
        </mxCell>
        <mxCell id="-2UiLBpFi5a7ax2FoRXW-5" value="拉取核对任务消息" style="html=1;verticalAlign=bottom;endArrow=open;dashed=1;endSize=8;" parent="-2UiLBpFi5a7ax2FoRXW-3" edge="1">
          <mxGeometry relative="1" as="geometry">
            <mxPoint x="276" y="100" as="sourcePoint" />
            <mxPoint x="66" y="100" as="targetPoint" />
          </mxGeometry>
        </mxCell>
        <mxCell id="-2UiLBpFi5a7ax2FoRXW-6" value="promocore的mysql从库" style="shape=umlLifeline;perimeter=lifelinePerimeter;whiteSpace=wrap;html=1;container=1;collapsible=0;recursiveResize=0;outlineConnect=0;" parent="1" vertex="1">
          <mxGeometry x="530" y="1600" width="140" height="870" as="geometry" />
        </mxCell>
        <mxCell id="-2UiLBpFi5a7ax2FoRXW-7" value="" style="html=1;points=[];perimeter=orthogonalPerimeter;" parent="-2UiLBpFi5a7ax2FoRXW-6" vertex="1">
          <mxGeometry x="65" y="100" width="10" height="80" as="geometry" />
        </mxCell>
        <mxCell id="-2UiLBpFi5a7ax2FoRXW-14" value="" style="html=1;points=[];perimeter=orthogonalPerimeter;" parent="-2UiLBpFi5a7ax2FoRXW-6" vertex="1">
          <mxGeometry x="65" y="200" width="10" height="70" as="geometry" />
        </mxCell>
        <mxCell id="-2UiLBpFi5a7ax2FoRXW-18" value="" style="html=1;points=[];perimeter=orthogonalPerimeter;" parent="-2UiLBpFi5a7ax2FoRXW-6" vertex="1">
          <mxGeometry x="65" y="290" width="10" height="60" as="geometry" />
        </mxCell>
        <mxCell id="-2UiLBpFi5a7ax2FoRXW-32" value="" style="html=1;points=[];perimeter=orthogonalPerimeter;" parent="-2UiLBpFi5a7ax2FoRXW-6" vertex="1">
          <mxGeometry x="65" y="480" width="10" height="50" as="geometry" />
        </mxCell>
        <mxCell id="-2UiLBpFi5a7ax2FoRXW-45" value="" style="html=1;points=[];perimeter=orthogonalPerimeter;" parent="-2UiLBpFi5a7ax2FoRXW-6" vertex="1">
          <mxGeometry x="65" y="600" width="10" height="80" as="geometry" />
        </mxCell>
        <mxCell id="-2UiLBpFi5a7ax2FoRXW-17" value="奖品规则" style="html=1;verticalAlign=bottom;endArrow=open;dashed=1;endSize=8;" parent="1" edge="1">
          <mxGeometry relative="1" as="geometry">
            <mxPoint x="590" y="1850" as="sourcePoint" />
            <mxPoint x="350" y="1850" as="targetPoint" />
          </mxGeometry>
        </mxCell>
        <mxCell id="-2UiLBpFi5a7ax2FoRXW-31" value="6 订单金额判断" style="edgeStyle=orthogonalEdgeStyle;html=1;align=left;spacingLeft=2;endArrow=block;rounded=0;entryX=1;entryY=0;" parent="1" edge="1">
          <mxGeometry relative="1" as="geometry">
            <mxPoint x="350" y="2040" as="sourcePoint" />
            <Array as="points">
              <mxPoint x="380" y="2040" />
            </Array>
            <mxPoint x="355" y="2060" as="targetPoint" />
          </mxGeometry>
        </mxCell>
        <mxCell id="-2UiLBpFi5a7ax2FoRXW-38" value="监控平台" style="shape=umlLifeline;perimeter=lifelinePerimeter;whiteSpace=wrap;html=1;container=1;collapsible=0;recursiveResize=0;outlineConnect=0;" parent="1" vertex="1">
          <mxGeometry x="745" y="1600" width="140" height="870" as="geometry" />
        </mxCell>
        <mxCell id="-2UiLBpFi5a7ax2FoRXW-55" value="发奖服务" style="shape=umlLifeline;perimeter=lifelinePerimeter;whiteSpace=wrap;html=1;container=1;collapsible=0;recursiveResize=0;outlineConnect=0;" parent="1" vertex="1">
          <mxGeometry x="920" y="1598" width="140" height="872" as="geometry" />
        </mxCell>
        <mxCell id="-2UiLBpFi5a7ax2FoRXW-58" value="" style="html=1;points=[];perimeter=orthogonalPerimeter;" parent="-2UiLBpFi5a7ax2FoRXW-55" vertex="1">
          <mxGeometry x="65" y="662" width="10" height="80" as="geometry" />
        </mxCell>
        <mxCell id="-2UiLBpFi5a7ax2FoRXW-71" value="Rocketmq" style="shape=umlLifeline;perimeter=lifelinePerimeter;whiteSpace=wrap;html=1;container=1;collapsible=0;recursiveResize=0;outlineConnect=0;" parent="1" vertex="1">
          <mxGeometry x="70" y="2530" width="160" height="430" as="geometry" />
        </mxCell>
        <mxCell id="-2UiLBpFi5a7ax2FoRXW-72" value="promoevent" style="shape=umlLifeline;perimeter=lifelinePerimeter;whiteSpace=wrap;html=1;container=1;collapsible=0;recursiveResize=0;outlineConnect=0;" parent="1" vertex="1">
          <mxGeometry x="305" y="2530" width="160" height="430" as="geometry" />
        </mxCell>
        <mxCell id="-2UiLBpFi5a7ax2FoRXW-74" value="" style="html=1;points=[];perimeter=orthogonalPerimeter;" parent="-2UiLBpFi5a7ax2FoRXW-72" vertex="1">
          <mxGeometry x="75" y="60" width="10" height="100" as="geometry" />
        </mxCell>
        <mxCell id="-2UiLBpFi5a7ax2FoRXW-80" value="return" style="html=1;verticalAlign=bottom;endArrow=open;dashed=1;endSize=8;" parent="-2UiLBpFi5a7ax2FoRXW-72" source="-2UiLBpFi5a7ax2FoRXW-73" edge="1">
          <mxGeometry relative="1" as="geometry">
            <mxPoint x="165" y="140" as="sourcePoint" />
            <mxPoint x="85" y="140" as="targetPoint" />
          </mxGeometry>
        </mxCell>
        <mxCell id="-2UiLBpFi5a7ax2FoRXW-73" value="promocore的mysql从库" style="shape=umlLifeline;perimeter=lifelinePerimeter;whiteSpace=wrap;html=1;container=1;collapsible=0;recursiveResize=0;outlineConnect=0;" parent="1" vertex="1">
          <mxGeometry x="555" y="2530" width="160" height="430" as="geometry" />
        </mxCell>
        <mxCell id="-2UiLBpFi5a7ax2FoRXW-78" value="" style="html=1;points=[];perimeter=orthogonalPerimeter;" parent="-2UiLBpFi5a7ax2FoRXW-73" vertex="1">
          <mxGeometry x="75" y="70" width="10" height="80" as="geometry" />
        </mxCell>
        <mxCell id="-2UiLBpFi5a7ax2FoRXW-75" value="拉取核对任务" style="html=1;verticalAlign=bottom;endArrow=open;dashed=1;endSize=8;" parent="1" edge="1">
          <mxGeometry relative="1" as="geometry">
            <mxPoint x="380" y="2610" as="sourcePoint" />
            <mxPoint x="160" y="2610" as="targetPoint" />
          </mxGeometry>
        </mxCell>
        <mxCell id="-2UiLBpFi5a7ax2FoRXW-76" value="查询活动&amp;amp;奖品数据" style="endArrow=block;endFill=1;html=1;align=left;verticalAlign=top;" parent="1" edge="1">
          <mxGeometry x="-1" relative="1" as="geometry">
            <mxPoint x="390" y="2629.4" as="sourcePoint" />
            <mxPoint x="626" y="2629" as="targetPoint" />
          </mxGeometry>
        </mxCell>
        <mxCell id="-2UiLBpFi5a7ax2FoRXW-77" value="1" style="edgeLabel;resizable=0;html=1;align=left;verticalAlign=bottom;" parent="-2UiLBpFi5a7ax2FoRXW-76" connectable="0" vertex="1">
          <mxGeometry x="-1" relative="1" as="geometry" />
        </mxCell>
        <mxCell id="dIPXyR0WP_CqWNbFkgD1-1" value=":Object" style="shape=umlLifeline;perimeter=lifelinePerimeter;whiteSpace=wrap;html=1;container=1;collapsible=0;recursiveResize=0;outlineConnect=0;" vertex="1" parent="1">
          <mxGeometry x="110" y="3580" width="100" height="300" as="geometry" />
        </mxCell>
      </root>
    </mxGraphModel>
  </diagram>
</mxfile>
